PathFileType   4   (X/Y/Z)
DataRate	CameraRate	NumFrames	NumMarkers	Units	OrigDataRate	OrigDataStartFrame	OrigNumFrames
120.0	120.0	4	37	mm	120.0	1	111
Frame#	Time	midhip	hip_r	hip_l	knee_r	knee_l	ankle_r	ankle_l	midasis	asis_r	asis_l	psis_r	psis_l	epicondLat_r	epicondLat_l	epicondMed_r	epicondMed_l	malleolusLat_r	malleolusLat_l	malleolusMedv_r	malleolusMedv_l	neck	subclavicle_r	subclavicle_l	sternalnotch	xyphoidprocess	thighwand_r	thighwand_l	upperleg1_r	upperleg1_l	upperleg2_r	upperleg2_l	shankwand_r	shankwand_l	lowerleg1_r	lowerleg1_l	toe_r	toe_l
 	 	X1	Y1	Z1	X2	Y2	Z2	X3	Y3	Z3	X4	Y4	Z4	X5	Y5	Z5	X6	Y6	Z6	X7	Y7	Z7	X8	Y8	Z8	X9	Y9	Z9	X10	Y10	Z10	X11	Y11	Z11	X12	Y12	Z12	X13	Y13	Z13	X14	Y14	Z14	X15	Y15	Z15	X16	Y16	Z16	X17	Y17	Z17	X18	Y18	Z18	X19	Y19	Z19	X20	Y20	Z20	X21	Y21	Z21	X22	Y22	Z22	X23	Y23	Z23	X24	Y24	Z24	X25	Y25	Z25	X26	Y26	Z26	X27	Y27	Z27	X28	Y28	Z28	X29	Y29	Z29	X30	Y30	Z30	X31	Y31	Z31	X32	Y32	Z32	X33	Y33	Z33	X34	Y34	Z34	X35	Y35	Z35	X36	Y36	Z36	X37	Y37	Z37

	1	0.09167	720.274	593.187	-327.435	721.948	599.839	-270.446	731.207	612.266	-386.864	650.890	308.512	-284.341	852.468	341.875	-339.264	418.650	126.271	-323.975	862.364	56.357	-328.601	768.165	669.058	-318.622	761.080	659.550	-229.550	775.249	678.566	-407.695	626.912	681.120	-284.688	633.799	682.968	-369.501	637.411	309.703	-240.376	862.224	338.005	-386.102	668.047	305.345	-328.582	846.731	348.265	-292.676	409.973	130.348	-291.876	856.735	54.968	-360.579	426.883	132.891	-348.525	858.190	55.210	-294.968	696.435	1006.502	-335.144	787.133	930.984	-303.040	776.969	930.964	-392.476	769.099	945.498	-338.290	799.874	806.686	-347.164	798.591	361.359	-268.148	901.677	433.588	-442.078	732.427	430.151	-237.571	857.422	491.318	-370.375	701.138	348.873	-245.576	883.560	417.222	-339.465	476.848	161.359	-211.295	950.724	166.943	-297.706	528.604	212.693	-260.703	893.655	219.247	-326.059	447.958	47.775	-334.897	947.865	37.287	-321.513
	2	0.10000	731.073	594.293	-327.422	732.371	600.551	-270.264	742.374	613.694	-386.542	669.641	307.092	-279.878	859.314	341.608	-338.408	433.040	131.242	-320.845	862.582	56.135	-328.374	778.696	670.195	-317.719	771.039	660.136	-228.721	786.352	680.255	-406.717	637.284	681.517	-284.703	644.636	684.097	-369.437	655.491	308.684	-236.137	869.971	337.934	-385.066	687.987	302.074	-323.371	850.667	347.823	-292.559	424.011	135.955	-288.931	857.154	54.947	-360.395	442.068	137.348	-345.607	858.326	54.989	-294.781	706.212	1007.615	-334.729	796.848	932.406	-301.697	787.378	932.047	-391.271	779.115	946.715	-337.217	810.221	807.984	-345.312	815.776	363.448	-262.539	911.935	433.876	-440.046	747.748	430.529	-234.224	867.323	491.163	-368.843	718.825	348.154	-240.913	890.665	416.047	-337.664	490.340	165.846	-207.592	953.630	164.318	-296.414	544.315	215.106	-256.131	897.964	217.863	-325.173	456.395	50.440	-332.487	947.983	37.101	-321.193
	3	0.10833	741.550	595.489	-327.384	742.510	601.430	-270.099	753.306	615.192	-386.235	688.804	306.047	-275.347	865.542	341.304	-337.908	448.463	136.476	-317.809	862.850	55.922	-328.295	789.041	671.401	-316.867	780.775	660.865	-227.959	797.306	681.936	-405.776	647.480	682.157	-284.876	655.310	685.485	-369.506	673.840	307.995	-231.893	876.578	337.610	-384.476	707.358	299.628	-317.844	856.507	347.086	-293.178	439.181	141.678	-286.043	857.470	54.894	-360.331	456.935	142.921	-343.067	858.307	54.813	-294.789	715.767	1008.986	-334.292	806.317	933.939	-300.165	797.753	933.358	-390.007	788.949	948.128	-336.009	820.376	809.445	-343.445	832.820	366.089	-256.549	920.663	433.410	-439.070	763.436	430.879	-230.332	876.991	490.403	-368.573	736.182	347.777	-235.866	898.365	414.574	-337.693	504.877	170.125	-204.091	956.270	161.911	-295.883	560.893	217.074	-252.039	901.856	216.437	-324.881	466.994	53.792	-329.150	948.066	36.970	-321.015
	4	0.11667	751.717	596.771	-327.296	752.412	602.467	-269.920	763.984	616.738	-385.919	708.301	305.493	-270.814	871.231	341.014	-337.717	464.751	141.946	-314.890	863.162	55.711	-328.334	799.207	672.671	-316.069	790.347	661.745	-227.263	808.066	683.598	-404.875	657.516	683.027	-285.146	665.861	687.077	-369.656	692.424	307.722	-227.698	882.174	337.128	-384.291	727.683	297.548	-312.159	862.421	346.394	-294.029	455.328	147.444	-283.217	857.712	54.812	-360.361	472.614	148.513	-340.556	858.447	54.804	-294.841	725.323	1010.506	-333.904	815.684	935.589	-298.645	807.996	934.873	-388.581	798.602	949.726	-334.680	830.323	811.054	-341.620	849.707	369.334	-250.355	927.974	432.328	-439.027	776.678	432.313	-226.349	886.011	489.271	-369.167	752.933	348.805	-230.630	905.633	413.005	-338.706	520.462	174.136	-200.804	958.660	159.742	-295.962	578.402	218.893	-248.561	905.351	215.244	-325.204	479.857	57.682	-324.746	948.139	36.865	-320.952
